<?xml version="1.0" encoding="UTF-8" standalone="no"?>
<svg
   xmlns:dc="http://purl.org/dc/elements/1.1/"
   xmlns:cc="http://creativecommons.org/ns#"
   xmlns:rdf="http://www.w3.org/1999/02/22-rdf-syntax-ns#"
   xmlns:svg="http://www.w3.org/2000/svg"
   xmlns="http://www.w3.org/2000/svg"
   xmlns:sodipodi="http://sodipodi.sourceforge.net/DTD/sodipodi-0.dtd"
   xmlns:inkscape="http://www.inkscape.org/namespaces/inkscape"
   id="Layer_1"
   data-name="Layer 1"
   viewBox="0 0 87.5 100"
   version="1.1"
   sodipodi:docname="vuetify.svg"
   inkscape:version="0.92.4 (5da689c313, 2019-01-14)">
  <metadata
     id="metadata19">
    <rdf:RDF>
      <cc:Work
         rdf:about="">
        <dc:format>image/svg+xml</dc:format>
        <dc:type
           rdf:resource="http://purl.org/dc/dcmitype/StillImage" />
      </cc:Work>
    </rdf:RDF>
  </metadata>
  <sodipodi:namedview
     pagecolor="#ffffff"
     bordercolor="#666666"
     borderopacity="1"
     objecttolerance="10"
     gridtolerance="10"
     guidetolerance="10"
     inkscape:pageopacity="0"
     inkscape:pageshadow="2"
     inkscape:window-width="1920"
     inkscape:window-height="1017"
     id="namedview17"
     showgrid="false"
     inkscape:zoom="2.36"
     inkscape:cx="43.75"
     inkscape:cy="50"
     inkscape:window-x="-8"
     inkscape:window-y="-8"
     inkscape:window-maximized="1"
     inkscape:current-layer="Layer_1" />
  <defs
     id="defs4">
    <style
       id="style2">.cls-1{fill:#1697f6;}.cls-2{fill:#7bc6ff;}.cls-3{fill:#aeddff;}</style>
  </defs>
  <title
     id="title6">Artboard 47</title>
  <g
     id="g874"
     transform="matrix(0.95451018,0,0,0.95451018,-121.71018,2.587872)">
    <path
       inkscape:connector-curvature="0"
       d="m 174.12067,65.433793 c -0.68225,0.0311 -1.34108,0.18041 -1.90039,0.45117 -1.23493,0.59782 -2.43055,1.93751 -2.78516,3.1211 -0.36751,1.22707 -0.36124,11.0901 0.008,11.45898 0.41841,0.4184 1.01904,0.31955 1.40429,-0.23047 0.26436,-0.37739 0.35157,-1.09375 0.35157,-2.92383 0,-1.33333 0.0452,-2.42383 0.10156,-2.42382 0.0564,0 0.46218,0.24427 0.90234,0.54296 1.61998,1.09934 3.99696,1.02806 5.5625,-0.16601 2.934,-2.23784 2.73034,-7.09411 -0.3789,-9.03125 -0.92521,-0.57644 -2.12854,-0.85072 -3.26563,-0.79883 z m 12.10352,0.008 c -0.25812,-0.0157 -0.51818,-0.0131 -0.7793,0.008 -0.6963,0.0558 -1.39606,0.24407 -2.0625,0.57617 -1.36957,0.68249 -2.19661,1.66855 -2.64258,3.15039 -0.48513,1.61188 -0.45656,10.7134 0.0352,11.20508 0.19441,0.19441 0.52834,0.35351 0.74219,0.35351 0.7844,0 0.92773,-0.47173 0.92773,-3.04297 0,-1.37736 0.0524,-2.55634 0.11523,-2.61914 0.0628,-0.0628 0.68398,0.17388 1.38086,0.52539 2.62917,1.32619 5.26402,0.46722 6.67383,-2.17383 0.68423,-1.28181 0.6776,-3.90077 -0.0137,-5.20703 -0.88453,-1.67154 -2.5701,-2.66528 -4.37695,-2.77539 z m -23.81836,0.0254 c -1.51638,0.0512 -2.64628,0.61143 -3.6543,1.78907 -2.30139,2.68865 -1.39585,7.08768 1.76172,8.55273 1.35488,0.62864 2.75896,0.54924 4.25977,-0.24023 l 1.26953,-0.66602 0.19922,0.52344 c 0.39494,1.03877 1.66545,0.89436 1.94531,-0.22071 0.0783,-0.31212 0.0988,-1.75784 0.0469,-3.21289 -0.0872,-2.44496 -0.14552,-2.73697 -0.78125,-3.86718 -0.96417,-1.71414 -2.3137,-2.53219 -4.37109,-2.64844 -0.2331,-0.0132 -0.45915,-0.0169 -0.67578,-0.01 z m 23.31836,1.77149 c 1.1571,-0.0343 2.33333,0.50344 3.01953,1.6289 0.90346,1.48179 0.42484,3.95157 -0.95703,4.93555 -1.45433,1.03558 -3.68555,0.66193 -4.71875,-0.78906 -0.67032,-0.94138 -0.79094,-2.91264 -0.24219,-3.97071 0.60351,-1.16364 1.74134,-1.77042 2.89844,-1.80468 z m -23.08985,0.0195 c 1.77554,-0.1017 3.61524,1.14679 3.61524,3.53515 0,1.19743 -0.84614,2.71459 -1.80078,3.22657 -2.5998,1.39429 -5.61042,-1.02563 -4.94532,-3.97461 0.40874,-1.81231 1.74988,-2.70801 3.13086,-2.78711 z m 12.14844,0.0137 c 1.26606,0.0422 2.1144,0.64182 2.72461,1.90234 0.87079,1.79881 0.36161,3.5859 -1.35742,4.75586 -0.44248,0.30116 -1.07257,0.50305 -1.55469,0.49805 -4.41514,-0.048 -4.77399,-6.77631 -0.38086,-7.14062 0.19841,-0.0164 0.3875,-0.0216 0.56836,-0.0156 z"
       style="fill:#fd501c;fill-opacity:1;stroke-width:0.22493573"
       id="path844" />
    <path
       style="fill:#040404;stroke-width:0.22493573"
       d="m 140.76834,59.481904 c -3.52327,-0.805419 -6.91237,-3.444314 -8.51782,-6.632325 -1.91741,-3.80746 -1.91138,-7.782401 0.0177,-11.702322 2.01056,-4.085406 6.73301,-7.00112 11.31537,-6.986287 2.34345,0.0076 5.62326,1.200236 7.73509,2.812744 l 1.06437,0.812701 -0.46769,0.82861 c -0.25722,0.455735 -0.81698,1.30851 -1.2439,1.895055 l -0.77621,1.066446 -1.43768,-0.984272 c -1.9576,-1.340226 -3.36565,-1.778838 -5.38217,-1.676565 -2.89247,0.146699 -5.4898,1.909938 -6.82815,4.6354 -0.56023,1.140869 -0.63395,1.539507 -0.63395,3.427892 0,1.838807 0.0827,2.313229 0.59274,3.401031 0.79215,1.689409 1.93459,2.907864 3.51754,3.751564 2.96597,1.580845 6.77768,1.364392 9.00209,-0.511199 0.91863,-0.77458 1.67024,-2.205078 1.57797,-3.003283 l -0.0695,-0.60148 -3.10122,-0.06264 -3.10123,-0.06264 0.0646,-2.074254 0.0646,-2.074253 5.15795,-0.06056 c 2.83687,-0.03331 5.2428,0.02429 5.34651,0.127996 0.10371,0.103707 -1.15555,3.060042 -2.79836,6.569634 l -2.98691,6.381077 -1.23491,0.429575 c -1.62183,0.564167 -5.05022,0.709917 -6.87683,0.292347 z m 9.73957,-0.750031 c -0.10534,-0.19701 10.90115,-23.899421 11.09798,-23.899421 0.10199,0 10.67608,22.512157 11.17286,23.786953 0.0834,0.213963 -0.45094,0.28117 -2.23538,0.28117 h -2.34496 l -0.77504,-1.630784 -0.77503,-1.630784 -5.01439,-0.06057 -5.01439,-0.06057 -0.78145,1.691355 -0.78145,1.691355 h -2.22927 c -1.2261,0 -2.26987,-0.07592 -2.31948,-0.168702 z m 14.00967,-7.448845 c 0,-0.421253 -2.1215,-5.295701 -2.53406,-5.822363 -0.12114,-0.154643 -0.31503,-0.281169 -0.43086,-0.281169 -0.24947,0 -2.63508,5.000314 -2.81514,5.900616 l -0.1245,0.622519 h 2.95228 c 2.73134,0 2.95228,-0.0314 2.95228,-0.419603 z m 13.3814,2.106621 c -2.05371,-3.031008 -3.88026,-5.510925 -4.059,-5.510925 -0.27288,0 -0.32498,0.746413 -0.32498,4.65617 0,2.804678 -0.0814,4.571197 -0.20475,4.44248 -0.11261,-0.117529 -1.1264,-2.211099 -2.25287,-4.652378 l -2.04811,-4.438689 0.0597,-6.358226 0.0597,-6.358225 h 4.94859 4.94858 L 180.3,35.795672 c 1.5507,0.761638 2.94922,2.118973 3.7481,3.637696 0.51743,0.983688 0.59712,1.404746 0.59793,3.159367 6.7e-4,1.583323 -0.10202,2.24746 -0.47157,3.04806 -0.62175,1.346971 -1.7501,2.608791 -2.82173,3.155496 -0.47564,0.242655 -0.8648,0.551808 -0.8648,0.687006 0,0.135199 0.75915,1.315386 1.68701,2.622638 0.92786,1.307252 1.68702,2.520842 1.68702,2.696866 0,0.515393 -1.74817,4.097774 -1.99968,4.097774 -0.12616,0 -1.90968,-2.479917 -3.96339,-5.510926 z m 0.72045,-7.899739 c 1.09557,-0.81796 1.53118,-1.610186 1.53118,-2.784707 0,-1.173235 -0.43563,-1.966761 -1.52704,-2.781616 -0.74772,-0.558254 -4.21858,-0.826084 -4.77041,-0.36811 -0.44705,0.371015 -0.49654,5.820435 -0.057,6.274131 0.46463,0.479577 4.06562,0.225963 4.82326,-0.339698 z m 5.02859,13.129495 c 0.0172,-0.444302 10.87735,-23.616276 11.08272,-23.646958 0.17487,-0.02613 11.17501,23.356858 11.17501,23.754702 0,0.10404 -1.03752,0.160316 -2.30559,0.12506 l -2.30559,-0.0641 -0.78728,-1.57455 -0.78727,-1.57455 -4.80759,-0.06079 c -3.23141,-0.04086 -4.90466,0.01979 -5.10369,0.184965 -0.16287,0.135163 -0.60058,0.896371 -0.9727,1.691573 l -0.67658,1.445819 h -2.26117 c -1.66481,0 -2.2583,-0.07416 -2.25027,-0.281171 z m 14.04265,-7.133746 c 0.22765,-0.36834 -2.60587,-6.335056 -2.97275,-6.259908 -0.31543,0.06461 -2.98312,5.591317 -2.98312,6.180202 0,0.230331 0.65098,0.296678 2.91089,0.296678 1.62673,0 2.97004,-0.09572 3.04498,-0.216972 z m 9.61626,7.139648 c -0.21516,-0.259256 -2.07599,-4.142637 -2.07599,-4.332409 0,-0.03529 0.65771,-0.01138 1.46157,0.05315 1.75434,0.140821 3.05526,-0.280374 4.13921,-1.340132 1.50551,-1.471914 1.47338,-1.264728 1.59717,-10.300714 l 0.11246,-8.210154 2.1675,-0.06407 2.1675,-0.06407 0.16687,5.785085 c 0.18722,6.490864 0.0775,10.992054 -0.28434,11.663682 -0.13313,0.247113 -0.50048,1.00909 -0.81632,1.693284 -1.34433,2.912113 -3.96212,4.814903 -7.24544,5.266475 -0.83786,0.115234 -1.20265,0.07584 -1.39019,-0.150127 z"
       id="path834"
       inkscape:connector-curvature="0" />
  </g>
</svg>
